<svg version="1.2" baseProfile="tiny-ps" xmlns="http://www.w3.org/2000/svg" width="50" height="50"><style></style><g id="Layer"><path d="M50 9.5c-1.86.81-3.84 1.35-5.91 1.62 2.13-1.27 3.75-3.27 4.51-5.67a20.38 20.38 0 0 1-6.5 2.48c-1.88-2-4.56-3.24-7.48-3.24-5.68 0-10.25 4.6-10.25 10.25 0 .81.07 1.59.24 2.34-8.52-.42-16.06-4.5-21.13-10.72-.88 1.53-1.4 3.29-1.4 5.18 0 3.55 1.83 6.69 4.55 8.52-1.65-.03-3.26-.51-4.63-1.27v.12c0 4.98 3.55 9.12 8.21 10.07-.83.23-1.74.34-2.69.34-.65 0-1.31-.04-1.94-.18 1.33 4.06 5.1 7.04 9.58 7.14a20.577 20.577 0 0 1-12.71 4.37c-.84 0-1.64-.03-2.45-.14 4.54 2.93 9.92 4.6 15.72 4.6 18.87 0 29.18-15.62 29.18-29.17 0-.45-.02-.89-.04-1.32 2.04-1.44 3.75-3.25 5.14-5.32Z" style="fill:#fff"/></g></svg>