<svg version="1.2" baseProfile="tiny-ps" xmlns="http://www.w3.org/2000/svg" width="50" height="50"><style>.shp0{fill:#fff}</style><g id="Layer"><path fill-rule="evenodd" class="shp0" d="M49.72 13.72V36c0 7.57-6.15 13.72-13.72 13.72H13.72C6.16 49.72 0 43.57 0 36V13.72C0 6.16 6.16 0 13.72 0H36c7.57 0 13.72 6.16 13.72 13.72ZM45.31 36V13.72c0-5.13-4.17-9.31-9.31-9.31H13.72c-5.13 0-9.31 4.18-9.31 9.31V36c0 5.14 4.18 9.31 9.31 9.31H36c5.14 0 9.31-4.17 9.31-9.31Z"/><path fill-rule="evenodd" class="shp0" d="M37.67 24.86c0 7.07-5.74 12.81-12.81 12.81-7.06 0-12.81-5.74-12.81-12.81 0-7.06 5.75-12.81 12.81-12.81 7.07 0 12.81 5.75 12.81 12.81Zm-4.41 0c0-4.63-3.77-8.4-8.4-8.4-4.63 0-8.4 3.77-8.4 8.4 0 4.63 3.77 8.4 8.4 8.4 4.63 0 8.4-3.77 8.4-8.4Z"/><path class="shp0" d="M38.21 8.31c-.85 0-1.68.34-2.28.95-.61.6-.95 1.43-.95 2.28 0 .85.34 1.69.95 2.29.6.6 1.43.95 2.28.95.85 0 1.69-.35 2.29-.95.6-.6.95-1.44.95-2.29 0-.85-.35-1.68-.95-2.28-.6-.61-1.44-.95-2.29-.95Z"/></g></svg>